<?xml version="1.0" encoding="utf-8"?>
<!-- Generator: Adobe Illustrator 26.0.3, SVG Export Plug-In . SVG Version: 6.00 Build 0)  -->
<svg version="1.1" id="Warstwa_1" xmlns="http://www.w3.org/2000/svg" xmlns:xlink="http://www.w3.org/1999/xlink" x="0px" y="0px"
	 viewBox="0 0 240 90" style="enable-background:new 0 0 240 90;" xml:space="preserve">
<style type="text/css">
	.st0{fill:none;stroke:#1D1D1B;stroke-width:3;stroke-miterlimit:10;}
	.st1{fill:none;stroke:#1D1D1B;stroke-miterlimit:10;}
	.st2{fill:none;}
	.st3{font-family:'MyriadPro-Regular';}
	.st4{font-size:44px;}
</style>
<path class="st0" d="M36.23,55.86"/>
<path class="st0" d="M36.23,55.86"/>
<path class="st0" d="M83.57,42.98"/>
<path class="st0" d="M83.57,42.98"/>
<line class="st0" x1="35.34" y1="19.41" x2="54.34" y2="19.41"/>
<line class="st1" x1="-7.71" y1="-23.45" x2="-7.58" y2="-23.45"/>
<path class="st1" d="M33.44,50.19"/>
<path class="st1" d="M33.44,50.19"/>
<line class="st2" x1="36.23" y1="-0.59" x2="36.23" y2="19.41"/>
<line class="st0" x1="36.84" y1="19.41" x2="36.84" y2="35.41"/>
<line class="st0" x1="52.84" y1="19.41" x2="52.84" y2="35.41"/>
<line class="st0" x1="20.84" y1="54.41" x2="20.84" y2="35.41"/>
<line class="st2" x1="0.84" y1="53.52" x2="20.84" y2="53.52"/>
<line class="st0" x1="20.84" y1="52.91" x2="54.34" y2="52.91"/>
<line class="st0" x1="20.84" y1="36.91" x2="54.34" y2="36.91"/>
<line class="st0" x1="68.84" y1="35.41" x2="68.84" y2="54.41"/>
<line class="st2" x1="83.88" y1="43.11" x2="63.88" y2="43.11"/>
<line class="st0" x1="68.84" y1="36.91" x2="52.84" y2="36.91"/>
<line class="st0" x1="68.84" y1="52.91" x2="52.84" y2="52.91"/>
<line class="st0" x1="54.34" y1="70.41" x2="35.34" y2="70.41"/>
<line class="st2" x1="53.45" y1="90.41" x2="53.45" y2="70.41"/>
<line class="st0" x1="52.84" y1="70.41" x2="52.84" y2="54.41"/>
<line class="st0" x1="36.84" y1="70.41" x2="36.84" y2="54.41"/>
<rect x="76.11" y="30.07" class="st2" width="160.83" height="45.68"/>
<text transform="matrix(1 0 0 1 76.1056 61.3114)" class="st3 st4">POLMED</text>
</svg>
